<svg width="18" height="18" viewBox="0 0 18 18" fill="none" xmlns="http://www.w3.org/2000/svg">
<path fill-rule="evenodd" clip-rule="evenodd" d="M5.75238 1.4994H12.2549C14.7974 1.4994 16.4999 3.2844 16.4999 5.9394V12.0676C16.4999 14.7151 14.7974 16.4994 12.2549 16.4994H5.75238C3.20988 16.4994 1.49988 14.7151 1.49988 12.0676V5.9394C1.49988 3.2844 3.20988 1.4994 5.75238 1.4994ZM8.99244 6.79516C8.63994 6.79516 8.34744 6.50191 8.34744 6.14266C8.34744 5.77516 8.63994 5.48266 9.00744 5.48266C9.36744 5.48266 9.65994 5.77516 9.65994 6.14266C9.65994 6.50191 9.36744 6.79516 8.99244 6.79516ZM9.65231 11.8351C9.65231 12.1951 9.35981 12.4876 8.99231 12.4876C8.63231 12.4876 8.33981 12.1951 8.33981 11.8351V8.52014C8.33981 8.15939 8.63231 7.86014 8.99231 7.86014C9.35981 7.86014 9.65231 8.15939 9.65231 8.52014V11.8351Z" fill="#A6ABC8"/>
</svg>
