<svg width="18" height="18" viewBox="0 0 18 18" fill="none" xmlns="http://www.w3.org/2000/svg">
<path fill-rule="evenodd" clip-rule="evenodd" d="M13.3267 6.28635H16.5C16.5 3.73844 14.9733 2.25 12.3867 2.25H5.61333C3.02667 2.25 1.5 3.73844 1.5 6.25385V11.7461C1.5 14.2616 3.02667 15.75 5.61333 15.75H12.3867C14.9733 15.75 16.5 14.2616 16.5 11.7461V11.5122H13.3267C11.8539 11.5122 10.66 10.3481 10.66 8.91225C10.66 7.47637 11.8539 6.31235 13.3267 6.31235V6.28635ZM13.3265 7.40431H15.9399C16.2492 7.40431 16.4999 7.64876 16.4999 7.95029V9.84822C16.4963 10.1483 16.2477 10.3907 15.9399 10.3942H13.3865C12.641 10.404 11.989 9.90628 11.8199 9.19825C11.7352 8.75872 11.8541 8.30518 12.1447 7.95917C12.4353 7.61315 12.8679 7.41006 13.3265 7.40431ZM13.4399 9.39975H13.6866C14.0032 9.39975 14.2599 9.14948 14.2599 8.84077C14.2599 8.53205 14.0032 8.28179 13.6866 8.28179H13.4399C13.2885 8.28005 13.1426 8.33749 13.0349 8.44129C12.9272 8.54509 12.8665 8.68661 12.8666 8.83427C12.8665 9.14405 13.1222 9.39618 13.4399 9.39975ZM5.05343 6.28636H9.28677C9.60341 6.28636 9.8601 6.03609 9.8601 5.72738C9.8601 5.41866 9.60341 5.1684 9.28677 5.1684H5.05343C4.73938 5.16838 4.48375 5.4147 4.4801 5.72088C4.48008 6.03066 4.73572 6.2828 5.05343 6.28636Z" fill="#A6ABC8"/>
</svg>
