<svg width="18" height="18" viewBox="0 0 18 18" fill="none" xmlns="http://www.w3.org/2000/svg">
<path fill-rule="evenodd" clip-rule="evenodd" d="M1.50006 9.01127C1.50006 5.06034 4.65756 1.5 9.01506 1.5C13.2751 1.5 16.5001 4.99274 16.5001 8.98873C16.5001 13.6232 12.7201 16.5 9.00006 16.5C7.77006 16.5 6.40506 16.1695 5.31006 15.5235C4.92756 15.2907 4.60506 15.1179 4.19256 15.2531L2.67756 15.7038C2.29506 15.824 1.95006 15.5235 2.06256 15.1179L2.56506 13.4354C2.64756 13.2026 2.63256 12.9547 2.51256 12.7594C1.86756 11.5726 1.50006 10.2732 1.50006 9.01127ZM8.02497 9.01127C8.02497 9.54457 8.45247 9.97271 8.98497 9.98022C9.51747 9.98022 9.94497 9.54457 9.94497 9.01878C9.94497 8.48548 9.51747 8.05734 8.98497 8.05734C8.45997 8.04983 8.02497 8.48548 8.02497 9.01127ZM11.4825 9.01878C11.4825 9.54457 11.91 9.98022 12.4425 9.98022C12.975 9.98022 13.4025 9.54457 13.4025 9.01878C13.4025 8.48548 12.975 8.05734 12.4425 8.05734C11.91 8.05734 11.4825 8.48548 11.4825 9.01878ZM5.52765 9.98023C5.00265 9.98023 4.56765 9.54457 4.56765 9.01879C4.56765 8.48549 4.99515 8.05734 5.52765 8.05734C6.06015 8.05734 6.48765 8.48549 6.48765 9.01879C6.48765 9.54457 6.06015 9.97272 5.52765 9.98023Z" fill="#A6ABC8"/>
</svg>
