<svg width="18" height="18" viewBox="0 0 18 18" fill="none" xmlns="http://www.w3.org/2000/svg">
<path fill-rule="evenodd" clip-rule="evenodd" d="M15.3016 10.1851C15.5699 10.3276 15.7768 10.5526 15.9225 10.7776C16.2061 11.2426 16.1831 11.8126 15.9071 12.3151L15.3706 13.2151C15.087 13.6951 14.5582 13.9951 14.014 13.9951C13.7457 13.9951 13.4468 13.9201 13.2015 13.7701C13.0022 13.6426 12.7723 13.5976 12.527 13.5976C11.7682 13.5976 11.1321 14.2201 11.1091 14.9626C11.1091 15.8251 10.4039 16.5001 9.52247 16.5001H8.48007C7.59097 16.5001 6.88582 15.8251 6.88582 14.9626C6.87049 14.2201 6.23432 13.5976 5.47552 13.5976C5.22258 13.5976 4.99264 13.6426 4.80102 13.7701C4.55575 13.9201 4.24917 13.9951 3.98857 13.9951C3.43671 13.9951 2.90785 13.6951 2.62426 13.2151L2.09539 12.3151C1.8118 11.8276 1.79647 11.2426 2.08006 10.7776C2.2027 10.5526 2.43264 10.3276 2.69324 10.1851C2.90785 10.0801 3.04581 9.90758 3.17611 9.70508C3.55935 9.06008 3.32941 8.21258 2.67791 7.83008C1.91911 7.40258 1.67384 6.45008 2.11072 5.70758L2.62426 4.82258C3.06881 4.08008 4.01923 3.81758 4.7857 4.25258C5.45252 4.61258 6.31863 4.37258 6.70953 3.73508C6.83216 3.52508 6.90115 3.30008 6.88582 3.07508C6.87049 2.78258 6.9548 2.50508 7.10043 2.28008C7.38402 1.81508 7.89756 1.51508 8.45708 1.50008H9.5378C10.105 1.50008 10.6185 1.81508 10.9021 2.28008C11.0401 2.50508 11.1321 2.78258 11.1091 3.07508C11.0937 3.30008 11.1627 3.52508 11.2853 3.73508C11.6762 4.37258 12.5424 4.61258 13.2168 4.25258C13.9756 3.81758 14.9337 4.08008 15.3706 4.82258L15.8842 5.70758C16.3287 6.45008 16.0834 7.40258 15.317 7.83008C14.6655 8.21258 14.4355 9.06008 14.8264 9.70508C14.9491 9.90758 15.087 10.0801 15.3016 10.1851ZM6.83209 9.00758C6.83209 10.1851 7.8055 11.1226 9.00886 11.1226C10.2122 11.1226 11.1626 10.1851 11.1626 9.00758C11.1626 7.83008 10.2122 6.88508 9.00886 6.88508C7.8055 6.88508 6.83209 7.83008 6.83209 9.00758Z" fill="#A6ABC8"/>
</svg>
