<svg width="101" height="24" viewBox="0 0 101 24" fill="none" xmlns="http://www.w3.org/2000/svg">
<circle cx="12" cy="12" r="12" fill="#5A67BA"/>
<path d="M13.808 10.72C13.6687 10.4633 13.467 10.269 13.203 10.137C12.9463 9.99767 12.642 9.928 12.29 9.928C11.6813 9.928 11.1937 10.1297 10.827 10.533C10.4603 10.929 10.277 11.4607 10.277 12.128C10.277 12.8393 10.4677 13.3967 10.849 13.8C11.2377 14.196 11.7693 14.394 12.444 14.394C12.906 14.394 13.2947 14.2767 13.61 14.042C13.9327 13.8073 14.1673 13.47 14.314 13.03H11.927V11.644H16.019V13.393C15.8797 13.8623 15.6413 14.2987 15.304 14.702C14.974 15.1053 14.5523 15.4317 14.039 15.681C13.5257 15.9303 12.9463 16.055 12.301 16.055C11.5383 16.055 10.8563 15.89 10.255 15.56C9.661 15.2227 9.19533 14.757 8.858 14.163C8.528 13.569 8.363 12.8907 8.363 12.128C8.363 11.3653 8.528 10.687 8.858 10.093C9.19533 9.49167 9.661 9.026 10.255 8.696C10.849 8.35867 11.5273 8.19 12.29 8.19C13.214 8.19 13.9913 8.41367 14.622 8.861C15.26 9.30833 15.6817 9.928 15.887 10.72H13.808Z" fill="white"/>
<path d="M37.808 9.72C37.6687 9.46333 37.467 9.269 37.203 9.137C36.9463 8.99767 36.642 8.928 36.29 8.928C35.6813 8.928 35.1937 9.12967 34.827 9.533C34.4603 9.929 34.277 10.4607 34.277 11.128C34.277 11.8393 34.4677 12.3967 34.849 12.8C35.2377 13.196 35.7693 13.394 36.444 13.394C36.906 13.394 37.2947 13.2767 37.61 13.042C37.9327 12.8073 38.1673 12.47 38.314 12.03H35.927V10.644H40.019V12.393C39.8797 12.8623 39.6413 13.2987 39.304 13.702C38.974 14.1053 38.5523 14.4317 38.039 14.681C37.5257 14.9303 36.9463 15.055 36.301 15.055C35.5383 15.055 34.8563 14.89 34.255 14.56C33.661 14.2227 33.1953 13.757 32.858 13.163C32.528 12.569 32.363 11.8907 32.363 11.128C32.363 10.3653 32.528 9.687 32.858 9.093C33.1953 8.49167 33.661 8.026 34.255 7.696C34.849 7.35867 35.5273 7.19 36.29 7.19C37.214 7.19 37.9913 7.41367 38.622 7.861C39.26 8.30833 39.6817 8.928 39.887 9.72H37.808ZM45.2129 15.077C44.4869 15.077 43.8196 14.9083 43.2109 14.571C42.6096 14.2337 42.1292 13.7643 41.7699 13.163C41.4179 12.5543 41.2419 11.8723 41.2419 11.117C41.2419 10.3617 41.4179 9.68333 41.7699 9.082C42.1292 8.48067 42.6096 8.01133 43.2109 7.674C43.8196 7.33667 44.4869 7.168 45.2129 7.168C45.9389 7.168 46.6026 7.33667 47.2039 7.674C47.8126 8.01133 48.2892 8.48067 48.6339 9.082C48.9859 9.68333 49.1619 10.3617 49.1619 11.117C49.1619 11.8723 48.9859 12.5543 48.6339 13.163C48.2819 13.7643 47.8052 14.2337 47.2039 14.571C46.6026 14.9083 45.9389 15.077 45.2129 15.077ZM45.2129 13.361C45.8289 13.361 46.3202 13.1557 46.6869 12.745C47.0609 12.3343 47.2479 11.7917 47.2479 11.117C47.2479 10.435 47.0609 9.89233 46.6869 9.489C46.3202 9.07833 45.8289 8.873 45.2129 8.873C44.5896 8.873 44.0909 9.07467 43.7169 9.478C43.3502 9.88133 43.1669 10.4277 43.1669 11.117C43.1669 11.799 43.3502 12.3453 43.7169 12.756C44.0909 13.1593 44.5896 13.361 45.2129 13.361ZM54.3604 15.077C53.6344 15.077 52.967 14.9083 52.3584 14.571C51.757 14.2337 51.2767 13.7643 50.9174 13.163C50.5654 12.5543 50.3894 11.8723 50.3894 11.117C50.3894 10.3617 50.5654 9.68333 50.9174 9.082C51.2767 8.48067 51.757 8.01133 52.3584 7.674C52.967 7.33667 53.6344 7.168 54.3604 7.168C55.0864 7.168 55.75 7.33667 56.3514 7.674C56.96 8.01133 57.4367 8.48067 57.7814 9.082C58.1334 9.68333 58.3094 10.3617 58.3094 11.117C58.3094 11.8723 58.1334 12.5543 57.7814 13.163C57.4294 13.7643 56.9527 14.2337 56.3514 14.571C55.75 14.9083 55.0864 15.077 54.3604 15.077ZM54.3604 13.361C54.9764 13.361 55.4677 13.1557 55.8344 12.745C56.2084 12.3343 56.3954 11.7917 56.3954 11.117C56.3954 10.435 56.2084 9.89233 55.8344 9.489C55.4677 9.07833 54.9764 8.873 54.3604 8.873C53.737 8.873 53.2384 9.07467 52.8644 9.478C52.4977 9.88133 52.3144 10.4277 52.3144 11.117C52.3144 11.799 52.4977 12.3453 52.8644 12.756C53.2384 13.1593 53.737 13.361 54.3604 13.361ZM62.7488 7.278C63.5628 7.278 64.2742 7.43933 64.8828 7.762C65.4915 8.08467 65.9608 8.53933 66.2908 9.126C66.6282 9.70533 66.7968 10.3763 66.7968 11.139C66.7968 11.8943 66.6282 12.5653 66.2908 13.152C65.9608 13.7387 65.4878 14.1933 64.8718 14.516C64.2632 14.8387 63.5555 15 62.7488 15H59.8558V7.278H62.7488ZM62.6278 13.372C63.3392 13.372 63.8928 13.1777 64.2888 12.789C64.6848 12.4003 64.8828 11.8503 64.8828 11.139C64.8828 10.4277 64.6848 9.874 64.2888 9.478C63.8928 9.082 63.3392 8.884 62.6278 8.884H61.7368V13.372H62.6278ZM73.375 7.278V8.785H70.229V10.413H72.583V11.876H70.229V15H68.348V7.278H73.375ZM78.5156 15.077C77.7896 15.077 77.1223 14.9083 76.5136 14.571C75.9123 14.2337 75.432 13.7643 75.0726 13.163C74.7206 12.5543 74.5446 11.8723 74.5446 11.117C74.5446 10.3617 74.7206 9.68333 75.0726 9.082C75.432 8.48067 75.9123 8.01133 76.5136 7.674C77.1223 7.33667 77.7896 7.168 78.5156 7.168C79.2416 7.168 79.9053 7.33667 80.5066 7.674C81.1153 8.01133 81.592 8.48067 81.9366 9.082C82.2886 9.68333 82.4646 10.3617 82.4646 11.117C82.4646 11.8723 82.2886 12.5543 81.9366 13.163C81.5846 13.7643 81.108 14.2337 80.5066 14.571C79.9053 14.9083 79.2416 15.077 78.5156 15.077ZM78.5156 13.361C79.1316 13.361 79.623 13.1557 79.9896 12.745C80.3636 12.3343 80.5506 11.7917 80.5506 11.117C80.5506 10.435 80.3636 9.89233 79.9896 9.489C79.623 9.07833 79.1316 8.873 78.5156 8.873C77.8923 8.873 77.3936 9.07467 77.0196 9.478C76.653 9.88133 76.4696 10.4277 76.4696 11.117C76.4696 11.799 76.653 12.3453 77.0196 12.756C77.3936 13.1593 77.8923 13.361 78.5156 13.361ZM87.6631 15.077C86.9371 15.077 86.2698 14.9083 85.6611 14.571C85.0598 14.2337 84.5794 13.7643 84.2201 13.163C83.8681 12.5543 83.6921 11.8723 83.6921 11.117C83.6921 10.3617 83.8681 9.68333 84.2201 9.082C84.5794 8.48067 85.0598 8.01133 85.6611 7.674C86.2698 7.33667 86.9371 7.168 87.6631 7.168C88.3891 7.168 89.0528 7.33667 89.6541 7.674C90.2628 8.01133 90.7394 8.48067 91.0841 9.082C91.4361 9.68333 91.6121 10.3617 91.6121 11.117C91.6121 11.8723 91.4361 12.5543 91.0841 13.163C90.7321 13.7643 90.2554 14.2337 89.6541 14.571C89.0528 14.9083 88.3891 15.077 87.6631 15.077ZM87.6631 13.361C88.2791 13.361 88.7704 13.1557 89.1371 12.745C89.5111 12.3343 89.6981 11.7917 89.6981 11.117C89.6981 10.435 89.5111 9.89233 89.1371 9.489C88.7704 9.07833 88.2791 8.873 87.6631 8.873C87.0398 8.873 86.5411 9.07467 86.1671 9.478C85.8004 9.88133 85.6171 10.4277 85.6171 11.117C85.6171 11.799 85.8004 12.3453 86.1671 12.756C86.5411 13.1593 87.0398 13.361 87.6631 13.361ZM96.0516 7.278C96.8656 7.278 97.5769 7.43933 98.1856 7.762C98.7942 8.08467 99.2636 8.53933 99.5936 9.126C99.9309 9.70533 100.1 10.3763 100.1 11.139C100.1 11.8943 99.9309 12.5653 99.5936 13.152C99.2636 13.7387 98.7906 14.1933 98.1746 14.516C97.5659 14.8387 96.8582 15 96.0516 15H93.1586V7.278H96.0516ZM95.9306 13.372C96.6419 13.372 97.1956 13.1777 97.5916 12.789C97.9876 12.4003 98.1856 11.8503 98.1856 11.139C98.1856 10.4277 97.9876 9.874 97.5916 9.478C97.1956 9.082 96.6419 8.884 95.9306 8.884H95.0396V13.372H95.9306Z" fill="#5A67BA"/>
</svg>
